HIERARCHY
ROOT Spine
{
    OFFSET 0.0 0.0 -0.0
    CHANNELS 6 Xposition Yposition Zposition Zrotation Xrotation Yrotation
    JOINT ShoulderCenter
    {
        OFFSET 0.0 32.85440444946289 0.0
        CHANNELS 3 Zrotation Xrotation Yrotation
        JOINT LeftShoulder
        {
            OFFSET 19.58982276916504 0.0 0.0
            CHANNELS 3 Zrotation Xrotation Yrotation
            JOINT LeftElbow
            {
                OFFSET 29.172470092773438 0.0 0.0
                CHANNELS 3 Zrotation Xrotation Yrotation
                JOINT LeftHand
                {
                    OFFSET 30.130428314208984 0.0 0.0
                    CHANNELS 3 Zrotation Xrotation Yrotation
                    End Site
                    {
                        OFFSET 12.05217170715332 0.0 0.0
                    }
                }
            }
        }
        JOINT RightShoulder
        {
            OFFSET -19.58982276916504 0.0 0.0
            CHANNELS 3 Zrotation Xrotation Yrotation
            JOINT RightElbow
            {
                OFFSET -29.172470092773438 0.0 0.0
                CHANNELS 3 Zrotation Xrotation Yrotation
                JOINT RightHand
                {
                    OFFSET -30.130428314208984 0.0 0.0
                    CHANNELS 3 Zrotation Xrotation Yrotation
                    End Site
                    {
                        OFFSET -12.05217170715332 0.0 0.0
                    }
                }
            }
        }
        End Site
        {
            OFFSET 0.0 13.14176082611084 0.0
        }
    }
    JOINT LeftHip
    {
        OFFSET 15.95254170039882 -15.95254170039882 0.0
        CHANNELS 3 Zrotation Xrotation Yrotation
        JOINT LeftKnee
        {
            OFFSET 0.0 -41.66917419433594 0.0
            CHANNELS 3 Zrotation Xrotation Yrotation
            JOINT LeftFoot
            {
                OFFSET 0.0 -48.57114791870117 0.0
                CHANNELS 3 Zrotation Xrotation Yrotation
                End Site
                {
                    OFFSET 0.0 0.0 19.4284610748291
                }
            }
        }
    }
    JOINT RightHip
    {
        OFFSET -15.95254170039882 -15.95254170039882 0.0
        CHANNELS 3 Zrotation Xrotation Yrotation
        JOINT RightKnee
        {
            OFFSET 0.0 -41.66917419433594 0.0
            CHANNELS 3 Zrotation Xrotation Yrotation
            JOINT RightFoot
            {
                OFFSET 0.0 -48.57114791870117 0.0
                CHANNELS 3 Zrotation Xrotation Yrotation
                End Site
                {
                    OFFSET 0.0 0.0 19.4284610748291
                }
            }
        }
    }
}
MOTION
Frames: 11
Frame Time: 0.03333333333333333
4.699999809265137 -13.600000381469727 -2.200000047683716 -77.27564693293044 -29.06952693929501 96.97239460921703 5.635265081146123e-07 -1.0409026941826706e-06 -1.8348533747423363 122.49500840711245 8.119336236842447 -120.18708150417574 4.820272718908696e-06 2.5721655775089707e-06 55.42691400098285 0.0 0.0 3.1805546814635176e-15 -111.83234229479338 -0.827448899370391 95.63021699958665 1.9269408702881923e-06 3.365293140077939e-06 -41.87247517818585 -6.3611093629270335e-15 -8.827812596100317e-32 1.5902773407317584e-15 172.79365035204276 -43.96143258724655 -120.89365208793218 60.76964982604095 34.41504977052895 -33.95634863169844 -1.987846675914698e-16 -3.0173187584327255e-33 1.7393658414253607e-15 -128.11085022238862 -42.325521696602685 147.4195097535453 -61.98987560160056 43.64977308083503 58.48338758200004 0.0 0.0 -5.367186024969684e-15
4.300000190734863 -11.399999618530273 -2.200000047683716 -74.81416640584892 -27.339317489023404 97.16182931099803 1.1005085342557255e-06 -2.4510058345559332e-06 -1.9698020261774252 123.4364361453722 6.514705518975569 -123.26642418209843 -8.636161389490054e-07 3.4249196348477075e-06 56.9196492209767 -3.1805546814635168e-15 -1.5902773407317584e-15 -4.4139062980501586e-32 -112.06332549165887 -1.729773563999408 99.68672124141258 -4.375868660242936e-06 3.7845217286545697e-06 -43.975058093921554 -6.3611093629270335e-15 -2.427648463927587e-31 4.373262687012335e-15 171.07987672698349 -48.73212840874644 -121.58278789684202 56.8926531844728 32.35710348018219 -32.24998406824754 -1.9878466759146985e-16 -1.5086593792163628e-34 8.696829207126806e-17 -126.73721029025 -46.91345354586634 149.4620501428419 -56.41478477692686 41.799531559778345 53.98560298597512 -1.5902773407317588e-15 7.951386703658794e-16 2.286023677301903e-15
4.0 -9.199999809265137 -2.200000047683716 -72.42565151656761 -25.722528737729668 97.22542662059979 2.7684214596704266e-06 -1.0993808896783644e-06 -1.6389554278724896 124.0181365724876 4.552631647555722 -125.65229817609716 2.2886219960131158e-07 6.2336305834394725e-06 57.801084466151956 -3.1805546814635168e-15 -1.5902773407317584e-15 3.1805546814635168e-15 -111.62890961137674 -2.2360246138886377 103.57361424438842 -7.859401083027852e-07 -4.324008296530157e-06 -45.55400025564991 2.427648463927587e-31 6.3611093629270335e-15 -4.373262687012335e-15 169.15497907124524 -53.31721907832874 -122.84850870752706 53.38182830413418 30.551215748607312 -31.16977195247545 0.0 0.0 -1.9133024255678963e-15 -124.58541388750152 -51.4631081655751 151.8290134049705 -51.23471336039694 39.478958354865746 49.9363339847837 0.0 0.0 2.7829853462805768e-15
3.5999999046325684 -6.899999618530273 -2.0999999046325684 -70.04964148060384 -23.984545100208756 97.55142043654618 -2.1893739264783155e-06 5.017801319677188e-06 -1.9714478028522107 123.70470682492433 3.161382423799354 -128.09637238529382 -5.504990188237808e-06 3.239528590565078e-07 58.54283991206233 -3.1805546814635168e-15 -1.5902773407317582e-15 -6.3611093629270335e-15 -112.50399883723661 -2.8780304651968205 107.31647034135834 -3.3114964270293165e-06 -7.144011239087777e-06 -47.36779772351364 6.620859447075238e-32 6.361109362927033e-15 -1.1927080055488186e-15 166.4904656230915 -58.21006458998678 -124.7580332779464 49.41211876807848 29.2844485501104 -30.76323629544884 -1.5086593792163628e-33 -1.5902773407317588e-15 -1.0871036508908507e-16 -121.33495208263757 -55.56691885634453 155.29370933265827 -46.541239519628895 37.15176736936604 47.078622610920156 -7.951386703658792e-16 -3.9311352967009226e-32 5.665363026356889e-15
3.299999952316284 -4.699999809265137 -2.0999999046325684 -67.49647724983107 -22.089121017988845 98.22600582519189 8.133465596639445e-07 -4.364097455438355e-06 -2.246210784998053 123.84262621211624 0.7801241354483168 -130.69823908109458 -3.6909211620679765e-06 -4.913831688918709e-06 59.78037782465821 1.7655625192200634e-31 6.361109362927032e-15 -3.180554681463516e-15 -112.37658226863337 -3.383305212391861 111.42903275799308 -7.290730096439765e-07 5.646391215707794e-06 -49.33588470195872 0.0 0.0 -1.1927080055488188e-15 163.80924095154265 -63.42116074245004 -126.5944821186566 45.3902290417778 27.54931526380619 -29.43147403501452 0.0 0.0 9.69075254508415e-16 -116.86099042546316 -59.135776873542206 160.25091224741465 -42.54160135227031 34.50190207327429 44.203984831008086 -7.951386703658794e-16 3.975693351829397e-16 1.490885006936024e-16
3.0 -2.6000001430511475 -2.0 -65.18579595404658 -20.348678874579175 98.09884196556713 -2.343406755814622e-06 9.017357943199969e-07 -2.0788567910460185 122.2369194641305 0.07561645066350153 -132.65197910703813 -1.4468198782214387e-06 -2.1351003716019955e-06 59.0810334895004 0.0 0.0 0.0 -112.28693472843364 -3.9942468246914564 115.1367733943499 7.711729224145062e-06 3.091461772783973e-06 -50.923413984043336 0.0 0.0 2.236327510404035e-15 158.70938253876224 -67.9627515649136 -131.04395557642212 41.847393625598095 26.06697937975487 -28.869717394901148 0.0 0.0 1.2424041724466862e-17 -111.98929860421349 -63.181610856515356 166.0581754047911 -38.371737891861066 31.7732011955551 41.185336677086504 -3.9756933518293955e-16 -7.758819664541294e-33 2.2363275104040347e-15
2.8000001907348633 -0.6000000238418579 -1.7000000476837158 -61.94921517342076 -19.015903665390745 98.09700185440109 1.9233761166227584e-06 3.0110780421498903e-07 -1.0447689828851245 122.64819454412742 -2.6405235136738465 -135.24692102484417 7.694843360720969e-07 -4.973082755603892e-07 59.93281828235109 0.0 -4.770832022195275e-15 0.0 -111.51581727119766 -4.334068495750377 119.66199513357931 3.898665506597064e-06 3.0904969487802756e-06 -52.66143641545344 -3.310429723537619e-32 -6.3611093629270335e-15 -5.963540027744094e-16 151.3309423342077 -73.25632962652166 -139.48736375149332 37.888360876333145 24.635022208731332 -27.93760670075821 -1.987846675914698e-16 -6.939833144395269e-33 4.00054143527833e-15 -103.08802726277544 -66.85036908417196 174.90482986718777 -35.050101178021585 29.0087667491323 38.260643713190674 -3.9756933518293955e-16 -1.9878466759146977e-16 4.721135855297406e-16
2.6000001430511475 1.5 -1.5 -59.25600322609728 -17.38595672656436 98.24442308918181 -1.0480575266642708e-06 2.5665701383470288e-08 -0.9757127754713798 121.9330053208726 -4.405389452169798 -137.79014705555548 -2.009026082724432e-07 1.037064404700735e-06 60.82170443580583 6.361109362927031e-15 -6.361109362927031e-15 3.531125038440127e-31 -111.07739888000208 -4.825843468532443 123.30661135110313 5.978340316719277e-06 5.0368483878244986e-06 -54.03800449372888 -2.648343778830095e-31 -6.3611093629270335e-15 -4.770832022195275e-15 138.93539585002353 -77.96157931749536 -151.67192304150822 34.27515101435949 22.485999657158423 -26.919960253272173 9.93923337957349e-17 -1.2715843339109344e-33 -1.4660369234870898e-15 -92.39662261575234 -69.3767098188488 -173.91950400565182 -31.795949560725912 26.242759416948417 36.03868029540914 1.9878466759146985e-16 9.939233379573492e-17 1.9629985924657646e-15
2.4000000953674316 3.4000000953674316 -1.3000000715255737 -55.958122186225225 -15.720884597504956 98.13251392564769 -7.711521798371149e-07 -1.278431828358821e-06 -0.6829744500954975 121.44722565664696 -6.354506184961216 -140.6362559582716 6.274388013364261e-07 2.6930655298770064e-06 61.22791851405919 -3.1805546814635168e-15 8.827812596100317e-32 -3.1805546814635168e-15 -110.76039400892947 -5.662239476621579 127.18868507526741 4.447559079444275e-06 5.773275156634945e-06 -55.24174728590497 0.0 0.0 -3.578124016646456e-15 109.62531082157795 -81.46509101530422 178.58889753646446 30.518756143200946 20.768927131716623 -26.142569986715245 9.93923337957349e-17 3.975693351829396e-16 -1.7766379665987615e-15 -76.30742267501593 -71.3257231806984 -156.67386030277356 -28.163739781252733 23.402621518066027 33.459480651448004 0.0 0.0 3.1060104311167156e-18
2.299999952316284 5.299999713897705 -0.8999999761581421 -52.80537820501854 -14.307361638090555 97.86401807292806 -3.2960430850941166e-06 -8.43175691065681e-07 -0.2894040586387845 120.46108574110805 -8.15726192950298 -143.51099434031804 -1.1872543387793387e-06 2.497440731008023e-06 61.82956946639851 0.0 -6.361109362927035e-15 0.0 -110.04918304445461 -6.335789181525754 130.85682839107736 1.4297116149816996e-06 1.1474298546917029e-06 -56.45052207590724 0.0 0.0 7.951386703658792e-16 69.6523027417063 -81.2680148169384 137.94291242543343 27.11381985838329 18.8258799601154 -25.18706848034429 0.0 0.0 -7.702905869169453e-16 -59.228931096570165 -71.6699055216701 -138.8143729300175 -25.176688398587608 20.499170065708867 30.869202769748405 -2.267956195128884e-33 -4.969616689786745e-17 -5.229550937740825e-15
2.200000047683716 6.899999618530273 -0.6000000238418579 -49.301753515736394 -12.490373386590951 98.38320999129397 1.875433204139872e-06 1.3879963828232225e-06 -1.0766571276419177 119.70677285705615 -9.855386981085832 -146.29265131708237 -1.8500347544983994e-06 3.099934387067584e-06 62.07856505501992 0.0 0.0 0.0 -109.98775598995834 -7.725967103031437 134.49046744839268 4.040566961707644e-06 1.1334870003969695e-06 -57.31048578325779 0.0 0.0 4.770832022195275e-15 38.99517562176375 -78.07297633184757 106.76392748298225 23.926737108723525 17.158663389903126 -24.233823438298646 1.4908850069360235e-16 -1.9235407085008624e-33 -1.4784609652115567e-15 -44.12541197894703 -69.30534115930097 -122.20586605503225 -22.152596785392486 17.802452163686194 28.56358763299848 2.4435735759907886e-33 1.1181637552020175e-16 -2.5042209100878516e-15
